<?xml version="1.0" standalone="no"?><!DOCTYPE svg PUBLIC "-//W3C//DTD SVG 1.1//EN" "http://www.w3.org/Graphics/SVG/1.1/DTD/svg11.dtd"><svg t="1634568508047" class="icon" viewBox="0 0 1024 1024" version="1.1" xmlns="http://www.w3.org/2000/svg" p-id="6539" xmlns:xlink="http://www.w3.org/1999/xlink" width="200" height="200"><defs><style type="text/css"></style></defs><path d="M958.759003 266.637119c-39.711911-70.914127-96.443213-130.481994-161.684211-173.030471-8.509695-5.67313-14.182825-8.509695-22.692521-8.509695-19.855956 0-34.038781 17.019391-34.038781 36.875346 0 14.182825 5.67313 25.529086 19.855956 34.038781 119.135734 73.750693 192.886427 209.905817 192.886427 354.570637s-73.750693 280.819945-192.886427 354.570638c-8.509695 5.67313-19.855956 17.019391-19.855956 34.038781 0 19.855956 14.182825 36.875346 34.038781 36.875346 8.509695 0 14.182825-2.836565 19.855956-5.67313 68.077562-42.548476 124.808864-102.116343 164.520776-173.030471C998.470914 680.775623 1021.163435 595.67867 1021.163435 510.581717c0-85.096953-22.692521-170.193906-62.404432-243.944598zM833.950139 510.581717c0-51.058172-11.34626-99.279778-36.875347-144.664819-22.692521-42.548476-56.731302-76.587258-96.443213-102.116344 0 0-11.34626-5.67313-19.855956-5.67313-19.855956 0-34.038781 17.019391-34.038781 36.875346 0 14.182825 5.67313 25.529086 17.019391 31.202216 62.404432 36.875346 99.279778 107.789474 99.279778 184.376731s-39.711911 147.501385-104.952909 184.376732c-11.34626 5.67313-17.019391 17.019391-17.01939 31.202216 0 19.855956 14.182825 36.875346 34.038781 36.875346 8.509695 0 17.019391-5.67313 17.019391-5.67313 87.933518-48.221607 141.828255-144.66482 141.828255-246.781164zM547.457064 5.67313c-5.67313-2.836565-11.34626-5.67313-17.019391-5.67313-8.509695 0-19.855956 2.836565-25.529086 8.509695-5.67313 5.67313-59.567867 51.058172-119.135734 96.443214-107.789474 85.096953-138.99169 99.279778-144.66482 102.116343H104.952909 34.038781C14.182825 207.069252 0 224.088643 0 243.944598v536.110804c0 19.855956 14.182825 36.875346 34.038781 36.875346h232.598338c5.67313 2.836565 36.875346 17.019391 130.481995 99.279778 31.202216 28.365651 68.077562 62.404432 104.952908 93.606649l2.836565 2.836565c8.509695 8.509695 17.019391 11.34626 28.365651 11.34626 5.67313 0 11.34626 0 17.019391-2.836565 14.182825-8.509695 25.529086-22.692521 25.529086-39.711911v-181.540167c0-2.836565-2.836565-743.180055-2.836565-751.68975-2.836565-22.692521-11.34626-36.875346-25.529086-42.548477z m-45.385042 782.891967v116.299169c-17.019391-17.019391-34.038781-31.202216-51.058172-45.385042-127.645429-110.626039-161.684211-119.135734-184.376731-119.135734H93.606648c-19.855956 0-25.529086-5.67313-25.529086-28.365651V303.512465c0-17.019391 2.836565-22.692521 17.019391-22.69252h156.01108c22.692521 0 53.894737-8.509695 195.722992-119.135734 22.692521-17.019391 45.385042-34.038781 65.240997-51.058172v677.939058z" fill="#666666" p-id="6540"></path></svg>